<?xml version="1.0" encoding="UTF-8"?><svg id="Layer_2" xmlns="http://www.w3.org/2000/svg" viewBox="0 0 747.57 909.17"><g id="Layer_1-2"><g><path d="m183.77.01c2.01.05,4.01.15,6.02.15,178.73,0,357.47,0,536.2.02,2.16,0,4.32.13,6.48.19.77,1.04,2.51,1.05,2.77,2.63,0,25.17,0,200.87.03,226.03.03,25.01.09,50.02.14,75.03-1.41,4.16-4.93,3.51-8.11,3.51-150.31,0-300.63.02-450.94-.07-3.44,0-6.72,1.48-8.97,4.07-6.32,7.26-12.92,14.27-19.39,21.4-1.36,1.49-2.65,3.04-4.73,3.55-17.38,0-34.76,0-52.14-.01-3.71-.89-4.87-4.39-6.98-6.89-2.25-2.67-4.33-5.49-6.48-8.24-1.99-2.89-4.1-5.71-5.95-8.68-2.54-4.1-6.15-5.23-10.82-5.19-21.66.16-43.32.14-64.97.02-4.13-.02-6.35,1.62-6.99,5.6-1.25,1.49-.7,3.27-.7,4.91-.03,152.39-.03,304.77,0,457.16,0,1.64-.55,3.42.7,4.91,1.68,5.58,2.25,5.85,11.3,5.4.32,0,.65,0,.97,0,19.49.05,38.98.16,58.47.09,5.4-.02,8.92,2.09,12.2,8.23,3.5,6.56,8.65,11.99,14.46,16.62,1.76,1.4,2.61,3.7,4.92,4.07.98,1.05,2.27.82,3.48.82,15,0,30.01,0,45.01,0,1.21,0,2.5.26,3.51-.75,2.34-.28,3.81-1.72,5.19-3.51,5.64-7.36,11.43-14.61,17.06-21.97,1.84-2.4,3.95-3.51,7.07-3.51,152.92.06,305.83.05,458.75.06.46,0,.92.09,1.38.14.93,1.1,2.58,1.63,2.73,3.37,0,34.17,0,68.33,0,102.5-.52,2.6-2.81,2.93-4.76,3.7-.92-.06-1.85-.17-2.77-.17-181.14,0-362.29,0-543.43,0-1.49,0-3.13-.46-4.38.89l-9.37.1-21.4-.52-16-.54-20.11,1.06-13.11-1.06c-.18-.28-13.8.54-13.8.54l-10.05-.26s-1.59-.21-2.51-.21c-22.72.06-45.44.13-68.16.19-2.46.14-3.72-1.96-5.55-2.98V2.96C2.44.48,5.43.1,8.78.11c22.77.05,45.55-.06,68.32-.11" style="fill:#fa3;"/><path d="m180.07,896.11c182.05,0,364.1.02,546.15,0,1.49,0,3.12.48,4.43-.73,1.95-.76,4.23-1.1,4.76-3.7,1.28-1.29.76-2.92.76-4.4.03-31.23.03-62.46,0-93.69,0-1.48.52-3.12-.77-4.4-.15-1.74-1.8-2.26-2.73-3.37,3.14-.93,4.7,1.22,6.34,3.23,2.83,3.47,5.67,6.93,8.5,10.4-.06,2-.17,4-.17,6-.05,34.52-.1,69.05-.14,103.57-1.85.04-3.71.1-5.56.1-181.61,0-406.7,0-588.31.05"/><path d="m735.24,3c-.26-1.57-2-1.59-2.77-2.63,0,0,.02,0,.03,0l4.02.81c.93.83,1.85,1.67,2.66,2.6,2.89,3.3,5.6,6.76,8.39,10.15-.08,2-.22,4-.22,6-.04,50.31-.07,251.16-.1,301.47-1.85.04-3.71.11-5.56.11-151.4,0-302.8.02-454.2-.06-3.9,0-6.23,1.15-8.62,4.43-3.4,4.67-7.8,8.64-11.73,12.95-3.4,3.74-6.78,7.49-10.05,11.34-18.82-.01-37.65-.02-56.47-.03-2.8-4.01-6.24-7.58-8.46-11.99,1.4-1.42,3.19-.82,4.81-.82,13.81-.05,27.62,0,41.44-.05,1.63,0,3.4.56,4.86-.73,2.83-.69,4.21-3.31,6.26-5.09,6.22-5.4,11.97-11.33,16.59-18.15,2.92-4.32,5.77-5.79,10.25-5.78,150.31.09,300.63.08,450.94.07,3.19,0,6.7.64,8.11-3.51,1.28-1.28.76-2.92.77-4.4.03-47.1.03-244.73,0-291.83,0-1.65.47-3.44-.94-4.83Z"/><path d="m11.25,908.94c-3.75-4.27-7.5-8.54-11.25-12.82,0-1.24,0-2.48,0-3.71,1.84,1.02,3.09,3.12,5.55,2.98,1.01,1,2.3.72,3.51.72,22.39,0,159.67-.03,182.06-.06,4.62,3.44,7.13,8.64,10.75,12.92-25.24-.01-165.38-.02-190.62-.03Z"/><path d="m88.92,313.14c.64-3.98,2.86-5.63,6.99-5.6,21.66.12,43.32.15,64.97-.02,4.67-.04,8.28,1.1,10.82,5.19,1.85,2.98,3.96,5.8,5.95,8.68-25.44.06-50.89.12-76.34.19-1.98,1.56-1.01,3.73-1.01,5.59-.06,65.26-.04,130.51-.05,195.77,0,87.52-.03,175.05-.04,262.57-9.05.45-9.62.18-11.3-5.4.07-1.54.19-3.08.19-4.62,0-152.58,0-305.16,0-457.74,0-1.54-.12-3.08-.19-4.62Z"/><path d="m100.22,785.52c.01-87.52.03-175.05.04-262.57,0-65.26,0-130.51.05-195.77,0-1.86-.97-4.03,1.01-5.59-.04,1.85-.12,3.71-.12,5.56,0,152.79,0,305.58,0,458.38-.32,0-.65,0-.97,0Z" style="fill:#404040;"/><path d="m243.26,336.54c-1.46,1.28-3.23.72-4.86.73-13.81.05-27.62,0-41.44.05-1.62,0-3.41-.6-4.81.82-.76-.28-.92-.93-1.04-1.62,17.38,0,34.76,0,52.14.01Z" style="fill:#402c0e;"/><path d="m243.24,814.61c-1.01,1.01-2.3.75-3.51.75-15,.01-30.01.01-45.01,0-1.22,0-2.5.22-3.48-.82,17.33.02,34.67.05,52,.07Z" style="fill:#ffbf66;"/><path d="m730.65,895.37c-1.31,1.22-2.94.73-4.43.73-182.05.01-454.45,0-636.5,0,1.24-1.35,93.23-.89,94.72-.89,181.14-.02,362.29-.02,543.43,0,.92,0,1.85.11,2.77.17Z" style="fill:#402b0d;"/><path d="m88.92,313.14c.07,1.54.19,3.08.19,4.62,0,152.58,0,305.16,0,457.74,0,1.54-.12,3.08-.19,4.62-1.25-1.49-.7-3.27-.7-4.91-.03-152.39-.03-304.77,0-457.16,0-1.64-.55-3.42.7-4.91Z" style="fill:#bf8026;"/><path d="m735.24,3c1.41,1.39.94,3.19.94,4.83.02,47.1.02,244.73,0,291.83,0,1.48.52,3.12-.77,4.4-.05-25.01-.11-50.02-.14-75.03-.03-25.17-.02-200.87-.03-226.03Z" style="fill:#bf8026;"/><path d="m735.41,789.18c1.28,1.29.76,2.92.77,4.4.03,31.23.03,62.46,0,93.69,0,1.48.52,3.12-.76,4.4,0-34.17,0-68.33,0-102.5Z" style="fill:#bf8026;"/><path d="m181.75,896.11c-22.39.02-150.3,0-172.69.01-1.21,0-2.5.28-3.51-.72,22.72-.06,45.44-.13,68.16-.19.92,0,107.4.02,108.04.9Z" style="fill:#402b0d;"/></g></g></svg>