<?xml version="1.0" encoding="UTF-8"?><svg id="Layer_2" xmlns="http://www.w3.org/2000/svg" viewBox="0 0 235.62 696.66"><g id="Layer_1-2"><path d="m25.33,695.83c-1.09-31.02-5.73-61.57-11.6-92.05-5.5-30.76-12.89-62.16-13.64-93.74-.62-22.55,2.02-45.41,6.58-67.51,2.97-13.97,6.61-28.05,11.4-41.49,9.2-27.07,24.2-51.91,39.99-75.55,16.24-24.36,35.08-47.52,51.97-71.06,2.13-3.24,7.28-10.89,9.44-14.16,3.47-5.45,6.98-11.4,10.41-16.89,18.42-32.04,35.34-64.96,50.82-98.52,14.31-31.75,27.38-64.41,39.69-97C224.02,18.69,227.48,9.09,231.33,0c0,0,3.95.66,3.95.66,1.3,28.18-1.12,56.67-6.02,84.42-3.5,19.76-8.46,39.98-14.76,59.07-15.83,51.05-43.71,97.72-79.12,137.69-7.76,8.94-16.75,18.42-25.43,26.36-30.55,28.31-65.95,52.93-79.5,93.94-4.62,13.48-6.49,27.87-6.23,42.1.23,11.29,1.77,22.98,3.74,34.11,2.94,16.86,6.77,34.06,9.37,51.02,3.55,23.54,6.39,46.86,7.42,70.99.92,24.26-.35,49.54-6.94,73.2-2.14,7.95-5.03,15.72-8.57,23.1,0,0-3.91-.84-3.91-.84h0Z" style="fill:#f88b58;"/></g></svg>