<?xml version="1.0" encoding="UTF-8"?><svg id="Layer_2" xmlns="http://www.w3.org/2000/svg" viewBox="0 0 117.76 973.34"><g id="Layer_1-2"><path d="m103.4,0c19.45,61.25,18.11,128.02,2.21,190-12.28,51.64-40.25,96.23-59.74,144.73-18.57,47.83-24.76,100.18-20.92,151.08,1.45,20.24,4.05,40.5,7.24,60.5,8.64,60.63,26.76,119.01,42.71,178.12,20.81,80.73,41.19,164.68,32.55,248.69,0,0-4,.21-4,.21-9.01-40.58-19.77-79.92-32.24-119.35-12.3-39.39-25.71-78.31-37.49-118.02-14.8-49.85-25.98-102.4-31.59-154.82-2.75-26.46-2.76-53.4-.58-79.91.29-4.37,1.05-11.44,1.49-15.86,10.03-83.12,27.58-166.59,50.26-246.75,5.71-19.57,12.16-38.76,17.93-58.15,11.48-38.56,19.01-78.01,23.37-118.2,1.15-10.16,2.03-20.4,2.79-30.61.84-10.29,1.25-20.63,2.03-31.15,0,0,3.97-.52,3.97-.52h0Z" style="fill:#f88b58;"/></g></svg>