<?xml version="1.0" encoding="UTF-8"?><svg id="Layer_2" xmlns="http://www.w3.org/2000/svg" viewBox="0 0 254.18 943.9"><g id="Layer_1-2"><path d="m253.74,9.91c-67.74,3.41-132.52,33.99-175.62,86.19-22.18,27.1-37.11,59.27-47.58,92.5-12.89,41.71-18.42,87.12-8.01,130.02.47,1.85,2.49,9.01,2.91,10.61.98,2.98,2.5,7.4,3.55,10.39,1.58,3.89,3.28,8.32,5.08,12.11,2.29,4.76,5.49,10.98,8.25,15.35,1.18,2.11,3.3,5.27,4.72,7.28,1.67,2.36,3.24,4.78,5.12,6.96,1.82,2.23,3.58,4.49,5.46,6.66,0,0,5.91,6.22,5.91,6.22,6.01,6.12,12.8,11.61,19.63,16.77,27.01,19.87,58.26,35.78,81.83,60.32,27.24,28.17,43.05,64.57,56.31,100.61,5.31,14.56,10.04,29.62,13.91,44.65,2.44,8.5,4.5,18.71,6.32,27.34,2.02,9.13,3.27,18.42,4.76,27.64,1.39,8.76,2.21,19.06,3.24,27.84,6.88,82.96-4.25,168.24-38.08,244.53,0,0-3.84-1.12-3.84-1.12,7.35-53.38,11.35-106.57,8.83-160.12-.26-9.91-1.28-20.76-1.84-30.7-.79-7.3-1.48-14.55-2.18-21.81-1.05-8.69-2.29-17.35-3.42-26.03-1.08-6.38-2.53-15.24-3.53-21.55-1.67-8.56-3.25-17.15-5.01-25.69-1.37-6.05-3.41-15.18-4.72-21.28-2.18-8.08-4.23-17.27-6.49-25.33-3.1-10.99-6.31-22.56-9.97-33.43-8.33-26.5-18.63-53.58-35.18-75.9-21.37-28.29-50.61-48.19-75.38-73.49-6.05-6.12-11.99-12.77-17.36-19.5-5.98-7.98-12.34-16.96-16.99-25.73-15.31-27.07-24.02-57.45-28.98-87.96C-.46,257.35-1.92,219.76,2.85,182.58,11.16,115.32,48.78,60.61,107.58,27.37,151.77,2.63,205.05-7.42,254.18,5.93c0,0-.44,3.98-.44,3.98h0Z" style="fill:#f88b58;"/></g></svg>