<?xml version="1.0" encoding="UTF-8"?><svg id="Layer_2" xmlns="http://www.w3.org/2000/svg" viewBox="0 0 255.88 1059.41"><g id="Layer_1-2"><path d="m255.47.33c2.78,36.84-8.84,73.4-26.07,105.62-30.46,56.41-77.19,102.19-121.19,147.32-20.83,21.36-41.79,42.93-58.24,67.91-49.46,74.58-29.84,146.24,4.72,221.78,8.96,19.83,21.75,47.59,29.76,67.51,5.17,12.77,10.34,26.64,14.88,39.68,7.64,22.25,14.5,45.73,19.31,68.76.43,2.24,2.27,11.79,2.72,14.18.59,3.73,1.64,10.68,2.2,14.32,1.16,9.14,2.2,19.78,2.73,28.97,3.33,59.66-10.78,114.66-34.85,168.8-11.45,25.87-24.5,50.48-38.23,74.78-4.73,8.45-9.63,17.2-16.3,24.38-8.79,10.08-23.56,19.71-36.9,12.62,0,0,1.37-3.76,1.37-3.76,5.47,1.08,10.58-.55,14.74-3.98,10.75-8.98,15.61-23.93,19.87-36.95,8.79-26.07,17.98-52.25,25.83-78.12,10.24-33.88,18.49-68.3,21.2-103.55,3.22-43.48-1.62-87.49-10.49-130.1-2.42-11.07-5.41-23.76-8.41-34.7-5.29-19.84-12.21-40.83-18.7-60.45-11.72-35.4-22.6-71.19-29.79-107.87-5.95-30.89-9.6-62.55-7-94.02,5.12-63.45,35.68-122.93,74.49-172.24,15.19-19.42,32.62-37.57,49.81-55.15,37.42-38.68,74.97-77.39,99.64-125.49,8.24-16.16,14.36-32.77,18.91-50.59,0,0,3.99.33,3.99.33h0Z" style="fill:#f88b58;"/></g></svg>