<?xml version="1.0" encoding="UTF-8"?><svg id="Layer_2" xmlns="http://www.w3.org/2000/svg" viewBox="0 0 224.14 1150.69"><g id="Layer_1-2"><path d="m136.56,0c26.76,74.5,66,144.76,81.21,223.11,9.31,47.93,8.66,97.98-3.58,145.28-17.75,68.64-57.62,133.09-112.34,178.13-11.97,9.63-24.87,18.23-38.45,25.43-6.88,3.52-13.85,6.91-21.08,9.75-5.74,2.36-12.81,4.65-19.66,4.19-24.45-1.98-27.74-29.95-16.42-47.45,6.95-10.93,18.12-18.96,30.39-22.84,26.5-8.25,56.22-1.03,76.65,17.74,2.26,2.09,5.06,5.25,7.1,7.56,6.45,7.66,11.59,16.59,15.56,25.77,11.19,27.51,11.95,57.97,7.57,86.9-10.82,73.62-51.19,137.64-72.38,207.85-19.95,64.65-29.6,131.89-34.49,199.55-2.21,29.59-3.39,59.4-4.69,89.42l-3.99.3c-18.58-98.84-20.4-202.09,4.18-300.27.82-3.23,3.68-13.29,4.65-16.79,12.31-43.6,32.73-84.63,49.52-126.19,14.52-37.24,28.39-79.49,19.66-119.28-2.53-11.29-7.13-21.57-14.18-30.56-7.32-9.08-18.73-15.62-31.22-18.02-14.42-2.64-29.7.6-38.27,12.22-3,4.34-5.95,13.35-.74,16.89,5.73,3.03,14.74-.81,20.86-2.74,60.82-21.05,104.61-75.98,124.66-135.61,9.5-27.16,14.84-55.66,18.01-84.2,4.61-42.52,4.35-85.67-3.02-127.84-10.12-58.17-30.92-114.59-42.73-172.52-2.93-14.86-5.37-29.84-6.66-44.93l3.91-.86h0Z" style="fill:#f88b58;"/></g></svg>