<?xml version="1.0" encoding="UTF-8"?><svg id="Layer_2" xmlns="http://www.w3.org/2000/svg" viewBox="0 0 257.57 242.75"><g id="Layer_1-2"><g><path d="m194.56,31.2c-.83,3.36-1.61,6.53-2.42,9.81,1.38.34,2.66.73,3.96.92.33.05.98-.52,1.09-.92.78-2.76,1.46-5.54,2.21-8.47,1.99.43,3.91.85,6.11,1.32-.8,3.37-1.57,6.67-2.36,9.98,2,1,4,1.88,5.87,2.97,1.36.79,2.72,1.71,3.8,2.83,4.33,4.49,2.89,15.28-4.85,17.5.8.61,1.53,1.15,2.24,1.71,2.92,2.25,4.21,5.21,3.8,8.88-.53,4.6-2.33,8.54-6.27,11.2-2.85,1.92-6.17,2.1-9.47,1.96-2.17-.1-4.33-.46-6.65-.72-.88,3.25-1.77,6.52-2.69,9.91-2.05-.45-3.97-.88-6.1-1.35.81-3.37,1.59-6.66,2.41-10.09-1.54-.37-2.97-.71-4.56-1.1-.9,3.24-1.79,6.46-2.73,9.85-2.06-.53-4.05-1.04-6.13-1.58.82-3.38,1.61-6.64,2.45-10.09-4.02-1.04-7.98-2.07-12.09-3.14.99-2.36,1.92-4.6,2.89-6.9,1.39.31,2.73.63,4.07.9,2.04.41,2.84-.1,3.34-2.09,2.13-8.43,4.19-16.88,6.42-25.28.67-2.5.27-3.9-3.08-5-1.16-.38-2.4-.55-3.75-.85.47-2.02.87-3.95,1.43-5.83.08-.27.97-.52,1.41-.42,3.44.76,6.86,1.61,10.29,2.43.19.04.38.05.75.09.82-3.31,1.64-6.6,2.48-10,2.02.52,3.98,1.02,6.12,1.58Zm-12.04,48.7c4.27,1.34,8.38,2.16,12.63,2.14,2.63-.01,5.19-1.91,5.92-4.25.74-2.38-.38-5.41-2.74-6.84-1.43-.87-2.98-1.61-4.56-2.14-2.56-.87-5.19-1.51-7.91-2.29-1.17,4.66-2.24,8.96-3.34,13.38Zm4.9-19.58c3.4,1.36,6.86,1.82,10.4,1.72,2.43-.07,4.68-1.83,5.32-4.09.61-2.16-.48-4.95-2.6-6.17-3.07-1.78-6.42-2.81-10.02-3.4-1.03,3.99-2.05,7.9-3.1,11.94Z" style="fill:#f88b58;"/><path d="m137.31,192.12c30.39,3.8,22.79-18.99,22.79-18.99l-86.73-41.63c-5.32-2.55-11.36-3.19-17.09-1.8L1.42,143.02" style="fill:none; stroke:#f88b58; stroke-miterlimit:10; stroke-width:12px;"/><path d="m148.48,192.2s36.31-1.98,59.1-13.38c0,0,30.39-22.79,41.78-7.6,0,0,15.19,15.19-34.19,37.98l-45.58,26.59s-3.8,3.8-30.39-3.8l-74.98-30.62s-8.8-7.83-23.88,0l-34.08,11.63" style="fill:none; stroke:#f88b58; stroke-miterlimit:10; stroke-width:12px;"/><g><line x1="86.04" y1="175.03" x2="88.8" y2="175.91" style="fill:none; stroke:#f88b58; stroke-miterlimit:10; stroke-width:8.12px;"/><line x1="94.42" y1="177.71" x2="136.62" y2="191.22" style="fill:none; stroke:#f88b58; stroke-dasharray:0 0 5.91 5.91; stroke-miterlimit:10; stroke-width:8.12px;"/><line x1="139.43" y1="192.12" x2="142.19" y2="193" style="fill:none; stroke:#f88b58; stroke-miterlimit:10; stroke-width:8.12px;"/></g><circle cx="188.59" cy="64.87" r="58.87" style="fill:none; stroke:#f88b58; stroke-miterlimit:10; stroke-width:12px;"/></g></g></svg>