<?xml version="1.0" encoding="UTF-8"?><svg id="Layer_2" xmlns="http://www.w3.org/2000/svg" viewBox="0 0 238.75 191.75"><g id="Layer_1-2"><g><path d="m167.27,84.56c.05,6.2-2.53,11.86-7.18,16.53-19.46,19.55-38.95,39.07-58.51,58.52-8.5,8.46-20.17,9.98-30.22,4.05-2.12-1.25-4.07-2.92-5.83-4.67-19.19-19.11-38.3-38.31-57.49-57.42-6.21-6.18-9.06-13.46-7.72-22.17.8-5.19,3.45-9.54,7.1-13.21C27.01,46.54,46.77,27.06,66.22,7.26c10.15-10.33,26.41-9.14,35.75.41,19.05,19.48,38.36,38.71,57.55,58.06,5.01,5.06,7.94,11.05,7.75,18.82ZM83.82,11.67c-3.69-.12-6.49,1.55-9.03,4.09-19.47,19.54-38.99,39.02-58.47,58.55-1.22,1.22-2.41,2.58-3.22,4.09-2.03,3.75-2.16,9.51,3.28,14.89,19.49,19.28,38.92,38.62,58.12,58.19,5.12,5.22,13,5.75,18.53.17,19.54-19.71,39.24-39.25,58.8-58.93,5.52-5.56,5.56-12.43.05-17.97-19.61-19.75-39.33-39.39-59.01-59.07-2.5-2.5-5.38-4.2-9.05-4.02Z" style="fill:#f88b58;"/><path d="m179.59,83.21c-.78-3.93-1.49-7.5-2.24-11.25.61-.06,1.23-.17,1.85-.17,11.75-.01,23.5-.12,35.24.03,9.19.12,16.85,3.57,21.29,11.95,1.65,3.12,2.75,6.94,2.79,10.46.25,24.5.3,49,.12,73.5-.1,13.84-10.29,23.82-24.24,23.91-23.41.15-46.83.17-70.24,0-13.85-.1-23.9-10.7-24.23-24.98q-.19-8.09,5.47-13.85c2.14-2.17,4.33-4.29,6.79-6.72,0,6.42.26,12.49-.06,18.52-.45,8.38,5.1,13.93,13.84,13.81,22.83-.3,45.66-.09,68.49-.11,5.91,0,10.45-2.8,12-7.57.55-1.71.78-3.59.78-5.4.05-23,.05-46,.03-69,0-8.5-4.67-13.11-13.19-13.12-10.58-.02-21.16,0-31.75,0h-2.74Z" style="fill:#f88b58;"/><path d="m179.46,123.68c4.5-.03,8.45,3.88,8.53,8.43.08,4.51-3.77,8.64-8.39,8.45-4.55-.18-8.3-3.06-8.53-8.38-.19-4.5,3.83-8.47,8.39-8.5Z" style="fill:#f88b58;"/><path d="m128.3,83.74c0,4.93-3.84,8.87-8.62,8.86-4.01-.01-8.24-4.52-8.32-8.86-.09-4.78,3.89-8.9,8.62-8.92,4.45-.02,8.33,4.13,8.32,8.92Z" style="fill:#f88b58;"/><path d="m47.91,91.76c-4.6-.05-8.54-3.93-8.55-8.41,0-4.44,4.07-8.52,8.51-8.51,4.61,0,8.88,4.27,8.82,8.81-.06,4.48-4.05,8.16-8.79,8.11Z" style="fill:#f88b58;"/><path d="m92.29,47.18c.01,4.64-3.74,8.5-8.32,8.57-4.52.07-8.54-3.83-8.6-8.34-.06-4.39,3.99-8.73,8.44-8.51,5.04.24,8.21,3.02,8.49,8.29Z" style="fill:#f88b58;"/><path d="m92.28,83.13c.05,4.62-3.68,8.51-8.26,8.62-4.5.11-8.53-3.74-8.66-8.28-.12-4.36,3.9-8.72,8.38-8.56,4.9.18,8.23,2.84,8.55,8.22Z" style="fill:#f88b58;"/><path d="m83.85,127.76c-4.53-.01-8.53-3.99-8.48-8.45.05-4.47,4.13-8.52,8.55-8.47,4.72.06,8.43,3.81,8.38,8.47-.06,4.64-3.87,8.46-8.44,8.45Z" style="fill:#f88b58;"/></g></g></svg>