<?xml version="1.0" encoding="UTF-8"?><svg id="Layer_2" xmlns="http://www.w3.org/2000/svg" viewBox="0 0 143.86 191.96"><g id="Layer_1-2"><g><path d="m.01,96C.01,72.67-.02,49.33.03,25.99c.01-5.95,1.36-11.51,5.1-16.37C10.13,3.1,16.92.16,24.86.09c20.17-.16,40.33-.07,60.5-.05,7.18,0,13.26,2.62,18.34,7.73,10.75,10.82,21.54,21.6,32.35,32.36,5.23,5.21,7.83,11.42,7.82,18.82-.03,36,.01,72.01-.03,108.01-.01,11.95-6.91,20.98-18.32,24.05-2.3.62-4.76.89-7.15.9-30.92.06-61.83.05-92.75.03-15.1-.01-25.57-10.51-25.6-25.69-.04-23.42-.01-46.84-.01-70.26ZM84.02,17.91c-1.29,0-2.19,0-3.1,0-18.33,0-36.66,0-54.99,0-6.1,0-8.1,1.98-8.1,8.06,0,46.67,0,93.34,0,140.01,0,6.19,1.9,8.11,8.02,8.11,30.75,0,61.49,0,92.24,0,6.04,0,7.93-1.88,7.93-7.91,0-34.5,0-69,0-103.5,0-.87-.08-1.75-.13-2.75-1.2,0-2.11,0-3.01,0-8.67,0-17.33.04-26-.01-7.73-.05-11.89-3.79-12.74-11.45-.22-1.98-.11-3.99-.12-5.99-.01-8.07,0-16.14,0-24.56Z" style="fill:#f88b58;"/><path d="m59.85,131.01c-1.26,4.13-2.36,7.77-3.5,11.4-2,6.38-5.85,11.12-12.55,12.64-3.08.7-6.42.68-9.59.38-2.67-.25-4.08-2.6-4.09-5.44,0-2.73,1.56-4.91,4.14-5.49,1.36-.3,2.79-.36,4.2-.43,3.47-.16,5.37-1.52,6.4-4.87,1.74-5.65,3.35-11.33,5.12-16.97,2.24-7.13,9.03-10.05,15.12-6.55,2.6,1.49,4.03,3.9,4.86,6.69,1.25,4.21,2.48,8.43,3.79,12.91,1.23-.71,2.23-1.38,3.31-1.88,6.51-2.99,13.99-.3,17.55,6.86,1.55,3.13,3.32,4.18,6.64,3.87,2.62-.25,5.33-.08,7.94.29,2.76.39,4.53,2.73,4.6,5.39.06,2.57-1.52,4.91-4.11,5.59-1.58.41-3.28.47-4.93.5-3.66.07-7.33,0-10.99.03-2.85.02-4.93-1.13-6.2-3.76-1.08-2.25-2.27-4.45-3.47-6.64-1.16-2.11-2.09-2.1-3.27.03-1.13,2.04-2.18,4.12-3.25,6.19-1.33,2.56-3.29,4.31-6.29,4.07-3.11-.24-4.45-2.51-5.26-5.26-1.84-6.22-3.75-12.42-5.64-18.62-.05-.15-.16-.29-.52-.94Z" style="fill:#f88b58;"/><path d="m51.05,47.91c-4.83,0-9.66.07-14.49-.03-2.38-.05-4.71-.59-5.78-3.13-.92-2.19-1.14-4.65.64-6.3,1.33-1.23,3.42-2.26,5.19-2.3,9.57-.22,19.16-.16,28.74-.08,3.85.03,6.42,2.5,6.46,5.83.04,3.61-2.37,5.91-6.5,5.99-4.75.09-9.5.02-14.24.02Z" style="fill:#f88b58;"/><path d="m50.88,71.92c-4.75,0-9.5.07-14.24-.03-2.38-.05-4.72-.54-5.83-3.05-.96-2.18-1.21-4.63.56-6.3,1.31-1.25,3.39-2.32,5.15-2.36,9.66-.22,19.32-.17,28.99-.07,3.81.04,6.36,2.65,6.29,5.98-.07,3.51-2.42,5.74-6.42,5.82-4.83.1-9.66.02-14.49.02Z" style="fill:#f88b58;"/></g></g></svg>