<?xml version="1.0" encoding="UTF-8"?><svg id="Layer_2" xmlns="http://www.w3.org/2000/svg" viewBox="0 0 215.77 191.97"><g id="Layer_1-2"><g><path d="m119.9,168.01h-24.19c0,1.48,0,2.86,0,4.25-.03,11.03-5.58,17.99-16.46,19.3-5.63.68-11.53.51-17.15-.34-8.67-1.31-14.08-8.87-14.2-18.54-.06-4.92.09-9.84-.08-14.75-.04-1.14-.7-2.61-1.57-3.31-12.55-10.01-19.55-23.11-21.86-38.85-.28-1.89-.31-3.82-.29-5.74.01-1.65-.66-2.31-2.29-2.51-10.95-1.38-17.96-7.68-20.86-18.08-3.14-11.28,1.69-22.69,13.24-28.2,4.77-2.28,8.02-.82,9.2,3.58.61,2.3-.02,4.12-1.89,5.48-1.48,1.08-3.07,2-4.59,3.02-4.2,2.83-6.29,8.22-5.12,13.13,1.14,4.8,5.86,8.84,10.83,9.49,1.86.24,2.64-.32,3.06-2.16,2.25-9.87,6.8-18.6,13.61-26.06,10.5-11.5,23.51-18.58,39.11-19.15,20.06-.73,40.15-.4,60.23-.63,1.25-.01,2.83-.55,3.69-1.41,7.29-7.21,16.21-10.21,26.22-10.53,1.83-.06,3.67-.08,5.5.02,6.62.35,10.49,5.7,8.81,12.15-.84,3.22-1.71,6.43-2.63,9.62-.36,1.24-.24,2.12.88,3.01,7.15,5.7,12.53,12.86,16.6,20.99.88,1.76,1.92,2.35,3.84,2.26,4.74-.21,9.34.5,12,5.01,1.17,1.99,2.05,4.48,2.08,6.76.2,12.08.19,24.17.06,36.26-.07,7.16-4.75,11.58-12.15,11.8-3.16.09-6.34.09-9.5,0-1.54-.05-2.62.34-3.62,1.61-5.55,7.06-12.51,12.41-20.53,16.38-1.63.81-2.33,1.76-2.21,3.63.17,2.74.1,5.5.03,8.25-.27,9.56-6.24,16.69-15.68,17.69-5.82.62-11.84.58-17.65-.15-8.62-1.1-14.22-8.67-14.47-18.32-.04-1.57,0-3.14,0-4.94Zm50.64-119.99c-.72-.07-1.21-.17-1.69-.16-8.2.07-15.18,2.86-20.27,9.47-1.46,1.89-3,2.6-5.42,2.59-19.42-.11-38.83-.15-58.25-.03-15.27.09-28.19,5.43-38.27,17.31-11.3,13.33-14.09,35.31-6.44,51.06,4.1,8.43,10.17,14.96,17.69,20.28,1.38.98,1.87,2.06,1.85,3.74-.09,6.17-.04,12.34-.04,18.5,0,7.74,1.5,9.26,9.12,9.26,2.67,0,5.33.02,8,0,4.89-.05,6.99-2.11,7.05-7.03.06-4.75,0-9.5.02-14.25,0-.87.08-1.75.12-2.58h47.7c0,1.04,0,1.94,0,2.84,0,4.67-.06,9.34.02,14,.08,4.86,2.23,6.96,7.1,7.01,3.33.04,6.67.03,10,0,4.9-.04,7-2.1,7.06-7.02.06-4.92.15-9.84-.05-14.75-.09-2.26.6-3.45,2.71-4.26,10.84-4.21,19.8-10.85,26.38-20.57.52-.76,1.87-1.32,2.84-1.35,5.3-.13,10.61-.06,15.98-.06v-36.15c-3.64,0-7.13-.07-10.6.03-1.45.04-2.22-.41-2.85-1.76-1.87-3.99-3.75-7.99-5.92-11.83-3.78-6.68-9.62-11.42-15.72-15.84-1.62-1.17-2.2-2.21-1.59-4.31,1.35-4.61,2.32-9.33,3.48-14.15Z" style="fill:#f88b58;"/><path d="m102.25,0c16.77.58,32.4,10.26,38.87,27.12,1.28,3.35-.08,6.85-3.19,8.19-2.95,1.27-5.69.2-7.27-3.26-2.76-6.02-6.35-11.33-11.9-15.09-8.94-6.05-18.5-6.45-28.33-2.69-9.23,3.53-14.67,10.56-17.47,19.84-.43,1.43-.84,2.89-1.44,4.25-1.13,2.56-3.9,3.99-6.28,3.39-2.81-.71-4.67-2.9-4.47-5.81.43-6.29,2.74-12.05,6.24-17.16C75.34,6.58,87.14.51,102.25,0Z" style="fill:#f88b58;"/><path d="m150.07,98.58c.33-4.94,4.41-8.78,9.01-8.5,4.89.3,8.89,4.61,8.58,9.24-.31,4.76-4.57,8.75-9.07,8.5-4.89-.27-8.83-4.55-8.52-9.23Z" style="fill:#f88b58;"/></g></g></svg>