<?xml version="1.0" encoding="UTF-8"?><svg id="Layer_2" xmlns="http://www.w3.org/2000/svg" viewBox="0 0 880.05 273.86"><g id="Layer_1-2"><path d="m879.76,37.23c-.43-5.28-4-9.8-9.07-11.36-171.35-52.91-353.05,14.01-353.05,14.01-81.59,31.47-122.33,10.82-133.92,2.79-4.37-3.02-8.99-5.65-13.79-7.93C226.33-33.52,4.16,19.88,4.16,19.88-3.84,28.88,2.16,51.88,2.16,51.88l17,11c14,11,16,92,16,92,6,67,72,93,72,93,100,52,210-3,210-3,49-15,83-114,83-114,7.83-28.18,24.24-32.46,30.99-32.99,2.42-.19,4.81-.51,7.21-.88,42.23-6.45,48.8,64.87,48.8,64.87,52,136,195,110,195,110,112,11,157-97,157-97,11-64,24-85,24-85,16.84-16.14,17.63-39.91,16.6-52.65Zm-506.6,113.65s-26,100-131,105c0,0-127,30-182-73,0,0-28.36-87.66-1.43-137.1,3.77-6.92,10.32-11.9,17.94-13.9,35.33-9.3,154.07-34.22,268.84,14.28,13.58,5.74,24.6,16.42,30.27,30.03,6.6,15.86,9.57,40-2.61,74.69Zm425,61s-40.3,63.13-143.15,48.06c0,0-107.85,11.96-142.85-88.55,0,0-27-62.51,0-100.51,0,0,133.75-83.48,287.62-32.39,8.32,2.76,14.81,9.37,17.51,17.71,8.49,26.2,20.84,87.81-19.13,155.68Z" style="fill:#440c1c;"/></g></svg>